<svg xmlns="http://www.w3.org/2000/svg" width="527" height="483" viewBox="211 231 525 481">
<g>
<path d="M 321.50 711.33 C291.88,708.82 251.16,701.27 247.00,697.50 C245.94,696.54 243.10,695.72 240.33,695.57 C234.61,695.26 219.08,688.78 215.88,685.37 L 213.71 683.06 L 217.48 664.78 C219.56,654.73 221.62,644.70 222.07,642.50 C226.58,620.26 244.55,578.45 260.45,553.17 C278.85,523.92 308.63,492.31 338.18,470.66 L 348.86 462.83 L 349.51 456.16 C356.47,384.78 379.25,332.39 427.70,276.32 C441.40,260.47 458.16,244.58 468.48,237.67 C474.21,233.83 477.19,234.18 482.79,239.34 C485.38,241.72 489.75,245.44 492.50,247.60 C500.44,253.83 517.49,270.65 526.36,281.00 C537.68,294.20 554.18,317.59 562.48,332.21 C576.60,357.05 590.04,393.89 595.51,422.75 C597.53,433.41 600.00,452.50 600.00,457.49 C600.00,461.60 600.03,461.64 612.75,471.19 C635.81,488.50 650.97,502.41 664.92,519.03 C685.71,543.83 698.61,565.26 712.85,598.71 C719.61,614.58 729.02,641.79 728.92,645.19 C728.89,646.46 729.76,649.98 730.86,653.01 C733.94,661.50 736.47,680.45 734.99,684.02 C733.79,686.93 732.31,687.56 707.25,695.92 C705.46,696.51 702.54,697.50 700.75,698.10 C673.43,707.35 633.39,712.78 601.00,711.63 C575.77,710.73 539.88,704.59 517.50,697.35 C508.81,694.53 484.74,684.92 478.84,681.92 L 475.18 680.05 L 465.84 684.38 C454.07,689.84 425.47,700.14 413.00,703.42 C400.68,706.66 382.43,709.78 368.54,711.01 C358.28,711.91 330.68,712.10 321.50,711.33 ZM 375.80 701.56 C396.31,698.79 421.54,692.32 442.74,684.38 C453.68,680.29 464.09,675.48 464.11,674.51 C464.12,674.12 459.85,670.98 454.63,667.51 C440.51,658.13 426.16,646.19 410.71,630.96 L 396.92 617.36 L 391.21 620.85 C383.22,625.74 370.48,631.19 349.50,638.69 C327.99,646.39 307.81,651.33 288.29,653.68 L 273.94 655.41 L 266.11 668.45 C261.80,675.63 257.11,683.81 255.68,686.64 L 253.08 691.78 L 255.29 692.26 C275.96,696.73 303.51,701.35 321.50,703.36 C329.29,704.24 364.66,703.06 375.80,701.56 ZM 654.00 700.52 C666.16,698.83 694.87,692.34 696.40,690.93 C697.36,690.05 689.43,675.23 680.81,661.80 C676.63,655.29 675.37,654.00 673.15,653.99 C662.55,653.97 620.51,645.60 604.50,640.32 C592.14,636.24 573.57,628.41 562.09,622.43 L 551.68 617.01 L 548.20 621.26 C542.19,628.57 520.88,649.22 511.82,656.52 C507.05,660.36 499.08,665.97 494.11,669.00 C489.15,672.03 485.07,674.77 485.04,675.11 C484.90,677.16 515.52,688.33 534.00,692.96 C549.20,696.78 571.78,701.05 581.50,701.95 C596.05,703.30 640.21,702.43 654.00,700.52 ZM 271.50 644.40 C277.68,636.01 294.19,617.05 303.63,607.50 C319.79,591.13 345.58,571.20 361.05,563.10 L 365.59 560.72 L 361.33 548.11 C354.09,526.72 349.00,498.51 349.00,479.83 L 349.00 472.87 L 342.90 477.15 C335.74,482.17 323.70,492.19 316.16,499.39 C310.50,504.80 290.28,527.08 283.40,535.50 C269.03,553.09 247.69,591.49 238.95,615.50 C233.04,631.73 229.05,646.09 230.33,646.53 C232.78,647.38 241.00,647.67 255.00,647.40 C269.47,647.11 269.50,647.11 271.50,644.40 ZM 720.24 645.43 C721.27,644.40 708.40,608.77 699.32,587.50 C693.57,574.04 677.34,548.07 664.90,532.46 C654.56,519.47 627.70,493.40 614.14,483.19 C607.35,478.07 601.63,474.04 601.44,474.23 C601.24,474.42 600.62,480.41 600.05,487.54 C598.26,509.75 591.72,542.83 586.43,556.37 C585.60,558.51 585.05,560.34 585.21,560.45 C585.37,560.55 590.09,563.45 595.71,566.89 C622.37,583.19 654.93,612.47 673.49,636.83 L 680.47 646.00 L 700.07 646.00 C710.85,646.00 719.92,645.74 720.24,645.43 ZM 408.37 600.27 C415.92,595.26 427.53,585.57 435.00,578.04 C441.32,571.66 466.00,542.83 466.00,541.83 C466.00,540.76 464.89,540.78 453.21,542.07 C436.30,543.94 420.79,546.94 411.50,550.15 C399.14,554.42 378.70,563.53 377.62,565.24 C377.01,566.20 378.08,569.34 380.97,575.08 C386.06,585.18 398.81,605.00 400.22,605.00 C400.78,605.00 404.44,602.87 408.37,600.27 ZM 556.24 596.75 C562.15,587.87 573.00,567.46 573.00,565.24 C573.00,563.51 560.49,557.77 547.00,553.32 C535.79,549.63 501.27,542.41 489.61,541.33 L 482.58 540.67 L 486.44 546.09 C494.19,556.94 507.07,571.89 515.09,579.34 C522.33,586.07 548.11,605.00 550.03,605.00 C550.43,605.00 553.23,601.29 556.24,596.75 ZM 480.94 515.72 C488.44,499.45 495.84,478.53 497.90,467.83 C500.02,456.80 502.21,437.14 501.45,435.92 C501.22,435.54 496.43,434.67 490.83,433.98 C481.22,432.80 470.08,433.00 453.25,434.66 L 447.00 435.28 L 447.00 439.04 C447.00,444.18 450.52,464.06 452.83,472.00 C456.29,483.85 467.12,513.39 470.72,520.78 C474.87,529.29 474.64,529.40 480.94,515.72 ZM 395.56 440.31 C403.28,437.45 415.76,433.40 423.29,431.31 L 436.98 427.50 L 437.48 413.04 C438.11,394.80 439.18,386.43 444.03,361.41 C449.23,334.63 455.17,316.20 465.20,295.74 L 469.24 287.50 L 466.03 281.28 C464.26,277.86 460.75,271.83 458.21,267.87 L 453.61 260.68 L 445.26 269.43 C435.55,279.61 411.27,309.56 404.13,320.18 C387.93,344.26 374.90,374.70 366.42,408.34 C362.67,423.21 359.03,444.68 359.01,452.02 L 359.00 456.55 L 370.26 451.02 C376.45,447.99 387.83,443.16 395.56,440.31 ZM 591.48 449.25 C590.64,440.98 587.56,424.25 584.88,413.50 C581.41,399.55 571.02,368.84 566.61,359.50 C555.04,334.99 537.66,306.96 524.13,291.00 C517.84,283.57 495.85,261.00 494.91,261.00 C494.01,261.00 488.01,270.23 483.18,279.04 L 479.05 286.59 L 482.12 293.04 C489.72,309.03 499.25,336.40 503.56,354.66 C508.74,376.57 510.92,394.79 511.35,419.50 C511.50,428.31 511.55,428.51 514.00,428.78 C527.41,430.27 560.65,441.10 577.83,449.59 C584.80,453.03 590.87,455.88 591.33,455.92 C591.79,455.96 591.85,452.96 591.48,449.25 Z" fill="#00581d"/>
</g>
</svg>